<svg width="18" height="18" viewBox="0 0 18 18" fill="none" xmlns="http://www.w3.org/2000/svg">
<path d="M16.485 17.154L10.223 10.892C9.72298 11.318 9.14798 11.6477 8.49798 11.881C7.84798 12.1144 7.19465 12.231 6.53798 12.231C4.93665 12.231 3.58132 11.6767 2.47198 10.568C1.36265 9.45871 0.807983 8.10371 0.807983 6.50304C0.807983 4.90238 1.36198 3.54671 2.46998 2.43604C3.57865 1.32471 4.93332 0.769043 6.53398 0.769043C8.13532 0.769043 9.49132 1.32371 10.602 2.43304C11.7127 3.54238 12.268 4.89804 12.268 6.50004C12.268 7.19471 12.145 7.86704 11.899 8.51704C11.6523 9.16704 11.329 9.72304 10.929 10.185L17.191 16.446L16.485 17.154ZM6.53798 11.23C7.86465 11.23 8.98498 10.7734 9.89898 9.86004C10.8123 8.94671 11.269 7.82638 11.269 6.49904C11.269 5.17238 10.8123 4.05238 9.89898 3.13904C8.98565 2.22571 7.86565 1.76904 6.53898 1.76904C5.21232 1.76904 4.09198 2.22571 3.17798 3.13904C2.26465 4.05238 1.80798 5.17238 1.80798 6.49904C1.80798 7.82571 2.26465 8.94571 3.17798 9.85904C4.09132 10.7724 5.21132 11.23 6.53798 11.23Z" fill="#606060"/>
</svg>
