<svg width="30" height="30" viewBox="0 0 30 30" fill="none" xmlns="http://www.w3.org/2000/svg">
<path d="M3.63437 9.77501L4.91937 22.4419C5.0513 23.7429 5.66147 24.9486 6.63166 25.8253C7.60184 26.7021 8.86296 27.1875 10.1706 27.1875H19.8294C21.137 27.1875 22.3981 26.7021 23.3683 25.8253C24.3385 24.9486 24.9487 23.7429 25.0806 22.4419L26.3656 9.77438L3.63437 9.77501Z" stroke="#2E2E2E" stroke-linecap="round" stroke-linejoin="round"/>
<path d="M9.77063 9.77501V8.01501C9.77063 6.62825 10.3215 5.2983 11.3021 4.31772C12.2827 3.33714 13.6126 2.78625 14.9994 2.78625C16.3861 2.78625 17.7161 3.33714 18.6967 4.31772C19.6772 5.2983 20.2281 6.62825 20.2281 8.01501V9.77438" stroke="#2E2E2E" stroke-linecap="round" stroke-linejoin="round"/>
</svg>
