<svg width="221" height="238" viewBox="0 0 221 238" fill="none" xmlns="http://www.w3.org/2000/svg">
<path d="M207.285 229.378H210.218L209.753 226.482L205.113 197.574L179.886 40.4364C179.882 39.653 179.825 38.3249 178.926 37.0455C178.127 35.9096 176.881 35.0991 175.27 34.4482C171.03 27.8496 162.117 20.1187 151.073 13.9773C139.54 7.56454 125.32 2.67932 110.973 2.67932C91.6538 2.67932 73.964 10.3471 61.1649 18.6556C54.7534 22.8176 49.5027 27.1828 45.8254 30.9176C43.9909 32.7808 42.5082 34.5274 41.4645 36.0486C40.9435 36.8081 40.5018 37.5548 40.1821 38.2656C39.9082 38.8745 39.652 39.6118 39.6062 40.3922L9.73164 226.482L9.26668 229.378H12.2H207.285Z" stroke="black" stroke-width="5"/>
<path d="M10.4896 224.048V213.175C10.6279 213.057 10.8693 212.882 11.2617 212.666C12.353 212.066 14.1232 211.409 16.6288 210.742C21.6003 209.419 28.9082 208.202 38.0721 207.17C56.367 205.112 81.7076 203.832 109.743 203.832C137.778 203.832 163.118 205.112 181.413 207.17C190.577 208.202 197.885 209.419 202.856 210.742C205.362 211.409 207.132 212.066 208.223 212.666C208.616 212.882 208.857 213.057 208.995 213.175V224.048H10.4896Z" stroke="black" stroke-width="5"/>
<path d="M109.743 217.597C137.778 217.597 163.118 218.877 181.413 220.936C190.577 221.967 197.885 223.184 202.856 224.507C205.362 225.174 207.132 225.831 208.223 226.431C208.297 226.472 208.365 226.511 208.429 226.549C208.365 226.586 208.297 226.625 208.223 226.666C207.132 227.266 205.362 227.923 202.856 228.59C197.885 229.913 190.577 231.13 181.413 232.162C163.118 234.221 137.778 235.5 109.743 235.5C81.7076 235.5 56.367 234.221 38.0721 232.162C28.9082 231.13 21.6003 229.913 16.6288 228.59C14.1232 227.923 12.353 227.266 11.2617 226.666C11.1879 226.625 11.1194 226.586 11.056 226.549C11.1194 226.511 11.1878 226.472 11.2616 226.431C12.3529 225.831 14.1232 225.174 16.6287 224.507C21.6003 223.184 28.9082 221.967 38.0721 220.936C56.367 218.877 81.7076 217.597 109.743 217.597Z" fill="#D9D9D9" stroke="black" stroke-width="5"/>
<path d="M109.743 215.097C53.5462 215.097 7.98962 220.225 7.98962 226.548C7.98962 226.604 7.99394 226.659 8.0015 226.714C8.7859 220.466 54.0367 215.428 109.743 215.428C165.448 215.428 210.699 220.466 211.483 226.714C211.491 226.659 211.495 226.604 211.495 226.548C211.495 220.225 165.939 215.097 109.743 215.097Z" fill="#EBF2B0"/>
<mask id="path-5-inside-1_90_188" fill="white">
<path d="M199.727 226.77C199.168 231.894 159.094 236.03 109.743 236.03C60.3909 236.03 20.3175 231.894 19.7578 226.77C19.7546 226.807 19.7513 226.842 19.7513 226.879C19.7513 232.053 60.0419 236.248 109.743 236.248C159.443 236.248 199.734 232.053 199.734 226.879C199.734 226.842 199.73 226.807 199.727 226.77Z"/>
</mask>
<path d="M199.727 226.77L200.723 226.682L198.733 226.661L199.727 226.77ZM19.7578 226.77L20.7519 226.661L18.7617 226.682L19.7578 226.77ZM198.733 226.661C198.733 226.662 198.733 226.667 198.729 226.678C198.724 226.69 198.716 226.71 198.7 226.737C198.666 226.794 198.602 226.878 198.487 226.985C198.251 227.204 197.865 227.46 197.288 227.739C196.138 228.296 194.415 228.858 192.137 229.407C187.595 230.5 181.042 231.492 172.929 232.327C156.716 233.997 134.395 235.03 109.743 235.03V237.03C134.442 237.03 156.834 235.996 173.134 234.317C181.279 233.478 187.934 232.475 192.605 231.351C194.934 230.791 196.819 230.189 198.16 229.539C198.829 229.215 199.41 228.857 199.846 228.452C200.28 228.049 200.65 227.527 200.721 226.879L198.733 226.661ZM109.743 235.03C85.0902 235.03 62.7696 233.997 46.5557 232.327C38.4431 231.492 31.8905 230.5 27.3479 229.407C25.0698 228.858 23.3469 228.296 22.1969 227.739C21.6205 227.46 21.234 227.204 20.9983 226.985C20.8832 226.878 20.8192 226.794 20.7853 226.737C20.7689 226.71 20.7606 226.69 20.7565 226.678C20.7525 226.667 20.7519 226.662 20.7519 226.661L18.7637 226.879C18.8345 227.527 19.2046 228.049 19.6386 228.452C20.0755 228.857 20.6555 229.215 21.3248 229.539C22.6663 230.189 24.5514 230.791 26.88 231.351C31.5509 232.475 38.2061 233.478 46.3508 234.317C62.6515 235.996 85.0437 237.03 109.743 237.03V235.03ZM18.7617 226.682C18.7593 226.709 18.7513 226.79 18.7513 226.879H20.7513C20.7513 226.89 20.7508 226.895 20.7511 226.892C20.7512 226.89 20.7515 226.887 20.752 226.881C20.7525 226.875 20.753 226.868 20.754 226.858L18.7617 226.682ZM18.7513 226.879C18.7513 227.551 19.0831 228.108 19.5001 228.535C19.914 228.96 20.4776 229.329 21.1262 229.658C22.427 230.32 24.2822 230.93 26.5843 231.497C31.2045 232.634 37.8472 233.649 46.0057 234.498C62.335 236.198 84.8692 237.248 109.743 237.248V235.248C84.9157 235.248 62.454 234.2 46.2128 232.509C38.086 231.663 31.5497 230.659 27.0623 229.555C24.8105 229.001 23.1298 228.434 22.0331 227.876C21.4829 227.596 21.1323 227.344 20.9318 227.139C20.7343 226.936 20.7513 226.854 20.7513 226.879H18.7513ZM109.743 237.248C134.616 237.248 157.15 236.198 173.479 234.498C181.638 233.649 188.28 232.634 192.901 231.497C195.203 230.93 197.058 230.32 198.359 229.658C199.007 229.329 199.571 228.96 199.985 228.535C200.402 228.108 200.734 227.551 200.734 226.879H198.734C198.734 226.854 198.751 226.936 198.553 227.139C198.353 227.344 198.002 227.596 197.452 227.876C196.355 228.434 194.674 229.001 192.423 229.555C187.935 230.659 181.399 231.663 173.272 232.509C157.031 234.2 134.57 235.248 109.743 235.248V237.248ZM200.734 226.879C200.734 226.79 200.726 226.709 200.723 226.682L198.731 226.858C198.732 226.868 198.733 226.875 198.733 226.881C198.734 226.887 198.734 226.89 198.734 226.892C198.734 226.895 198.734 226.89 198.734 226.879H200.734Z" fill="black" mask="url(#path-5-inside-1_90_188)"/>
<path d="M62.1877 21.1684C65.0007 19.2965 68.0602 17.4637 71.3304 15.7516C68.2687 17.4942 65.3861 19.3447 62.7103 21.2267C56.5904 25.531 51.54 30.0087 47.8853 33.7589C46.0582 35.6338 44.5765 37.3304 43.4831 38.7359C43.2741 39.0046 43.0782 39.264 42.896 39.5131C42.8993 39.5054 42.9027 39.4976 42.9061 39.4898C43.1219 38.9913 43.4492 38.4038 43.8893 37.7384C44.7693 36.4078 46.0775 34.799 47.7759 33.016C51.1711 29.4515 56.0952 25.2225 62.1877 21.1684ZM156.775 21.2267C154.099 19.3448 151.217 17.4945 148.155 15.752C151.425 17.464 154.485 19.2967 157.297 21.1684C163.39 25.2225 168.314 29.4515 171.709 33.016C173.407 34.799 174.716 36.4078 175.596 37.7384C176.036 38.4038 176.363 38.9913 176.579 39.4898C176.582 39.4967 176.585 39.5037 176.588 39.5106C176.406 39.2622 176.211 39.0036 176.003 38.7359C174.909 37.3304 173.427 35.6338 171.6 33.7589C167.945 30.0087 162.895 25.531 156.775 21.2267Z" stroke="black"/>
<path d="M0.886017 219.987V220.487H1.38602H7.99181H8.49181V219.987V217.49V216.99H7.99181H4.39746C5.33291 159.329 52.531 112.711 110.411 112.711C168.29 112.711 215.487 159.329 216.423 216.99H211.496H210.996V217.49V219.987V220.487H211.496H219.434H219.934V219.987V218.738C219.934 203.955 217.038 189.611 211.327 176.106C205.811 163.064 197.913 151.351 187.856 141.293C177.799 131.235 166.085 123.338 153.043 117.822C139.539 112.11 125.195 109.214 110.411 109.214C95.6267 109.214 81.2824 112.11 67.7785 117.822C54.7364 123.338 43.0225 131.235 32.9648 141.293C22.907 151.351 15.0104 163.064 9.49338 176.106L9.91583 176.285L9.49337 176.106C3.78183 189.611 0.886017 203.955 0.886017 218.738V219.987Z" fill="#212121" stroke="black"/>
<path d="M76.1456 111.655C86.964 108.708 98.2438 107.187 109.757 107.187C121.203 107.187 132.419 108.69 143.177 111.603C145.557 112.248 146.944 114.724 146.275 117.098C145.603 119.479 143.115 120.854 140.742 120.154C130.618 117.168 121.315 116.101 109.757 116.101C98.2708 116.101 88.7111 117.249 78.5831 120.217C76.1316 120.936 73.5796 119.452 72.9994 116.966L72.9962 116.954C72.4527 114.629 73.8411 112.283 76.1456 111.655Z" fill="#2B2F2E"/>
</svg>
