<?xml version="1.0" encoding="UTF-8" standalone="no"?>
<svg
   width="221"
   height="238"
   viewBox="0 0 221 238"
   fill="none"
   version="1.1"
   id="svg9"
   sodipodi:docname="boldicon.svg"
   inkscape:export-filename="light-icon.svg"
   inkscape:export-xdpi="96"
   inkscape:export-ydpi="96"
   xmlns:inkscape="http://www.inkscape.org/namespaces/inkscape"
   xmlns:sodipodi="http://sodipodi.sourceforge.net/DTD/sodipodi-0.dtd"
   xmlns="http://www.w3.org/2000/svg"
   xmlns:svg="http://www.w3.org/2000/svg">
  <defs
     id="defs9">
    <filter
       style="color-interpolation-filters:sRGB"
       inkscape:label="Invert"
       id="filter9"
       x="0"
       y="0"
       width="1"
       height="1">
      <feColorMatrix
         values="-1 0 0 0 1 0 -1 0 0 1 0 0 -1 0 1 0.21 0.72 0.07 1 0 "
         result="fbSourceGraphic"
         id="feColorMatrix9" />
      <feColorMatrix
         result="fbSourceGraphicAlpha"
         in="fbSourceGraphic"
         values="0 0 0 -1 0 0 0 0 -1 0 0 0 0 -1 0 0 0 0 1 0"
         id="feColorMatrix17" />
      <feColorMatrix
         id="feColorMatrix18"
         values="-1 0 0 0 1 0 -1 0 0 1 0 0 -1 0 1 0.21 0.72 0.07 1 0 "
         result="fbSourceGraphic"
         in="fbSourceGraphic" />
      <feColorMatrix
         result="fbSourceGraphicAlpha"
         in="fbSourceGraphic"
         values="0 0 0 -1 0 0 0 0 -1 0 0 0 0 -1 0 0 0 0 1 0"
         id="feColorMatrix33" />
      <feColorMatrix
         id="feColorMatrix34"
         values="-1 0 0 0 1 0 -1 0 0 1 0 0 -1 0 1 0.21 0.72 0.07 1 0 "
         result="color2"
         in="fbSourceGraphic" />
    </filter>
    <filter
       style="color-interpolation-filters:sRGB"
       inkscape:label="Invert"
       id="filter10"
       x="-0.0022826049"
       y="-0.004493453"
       width="1.0045652"
       height="1.0089869">
      <feColorMatrix
         values="-1 0 0 0 1 0 -1 0 0 1 0 0 -1 0 1 0.21 0.72 0.07 1 0 "
         result="fbSourceGraphic"
         id="feColorMatrix10" />
      <feColorMatrix
         result="fbSourceGraphicAlpha"
         in="fbSourceGraphic"
         values="0 0 0 -1 0 0 0 0 -1 0 0 0 0 -1 0 0 0 0 1 0"
         id="feColorMatrix19" />
      <feColorMatrix
         id="feColorMatrix20"
         values="-1 0 0 0 1 0 -1 0 0 1 0 0 -1 0 1 0.21 0.72 0.07 1 0 "
         result="fbSourceGraphic"
         in="fbSourceGraphic" />
      <feColorMatrix
         result="fbSourceGraphicAlpha"
         in="fbSourceGraphic"
         values="0 0 0 -1 0 0 0 0 -1 0 0 0 0 -1 0 0 0 0 1 0"
         id="feColorMatrix35" />
      <feColorMatrix
         id="feColorMatrix36"
         values="-1 0 0 0 1 0 -1 0 0 1 0 0 -1 0 1 0.21 0.72 0.07 1 0 "
         result="color2"
         in="fbSourceGraphic" />
    </filter>
    <filter
       style="color-interpolation-filters:sRGB"
       inkscape:label="Invert"
       id="filter11"
       x="-0.0034375469"
       y="-0.018642078"
       width="1.0068673"
       height="1.0310648">
      <feColorMatrix
         values="-1 0 0 0 1 0 -1 0 0 1 0 0 -1 0 1 0.21 0.72 0.07 1 0 "
         result="fbSourceGraphic"
         id="feColorMatrix11" />
      <feColorMatrix
         result="fbSourceGraphicAlpha"
         in="fbSourceGraphic"
         values="0 0 0 -1 0 0 0 0 -1 0 0 0 0 -1 0 0 0 0 1 0"
         id="feColorMatrix21" />
      <feColorMatrix
         id="feColorMatrix22"
         values="-1 0 0 0 1 0 -1 0 0 1 0 0 -1 0 1 0.21 0.72 0.07 1 0 "
         result="fbSourceGraphic"
         in="fbSourceGraphic" />
      <feColorMatrix
         result="fbSourceGraphicAlpha"
         in="fbSourceGraphic"
         values="0 0 0 -1 0 0 0 0 -1 0 0 0 0 -1 0 0 0 0 1 0"
         id="feColorMatrix37" />
      <feColorMatrix
         id="feColorMatrix38"
         values="-1 0 0 0 1 0 -1 0 0 1 0 0 -1 0 1 0.21 0.72 0.07 1 0 "
         result="color2"
         in="fbSourceGraphic" />
    </filter>
    <filter
       style="color-interpolation-filters:sRGB"
       inkscape:label="Invert"
       id="filter12"
       x="0"
       y="0"
       width="1"
       height="1">
      <feColorMatrix
         values="-1 0 0 0 1 0 -1 0 0 1 0 0 -1 0 1 0.21 0.72 0.07 1 0 "
         result="fbSourceGraphic"
         id="feColorMatrix12" />
      <feColorMatrix
         result="fbSourceGraphicAlpha"
         in="fbSourceGraphic"
         values="0 0 0 -1 0 0 0 0 -1 0 0 0 0 -1 0 0 0 0 1 0"
         id="feColorMatrix23" />
      <feColorMatrix
         id="feColorMatrix24"
         values="-1 0 0 0 1 0 -1 0 0 1 0 0 -1 0 1 0.21 0.72 0.07 1 0 "
         result="fbSourceGraphic"
         in="fbSourceGraphic" />
      <feColorMatrix
         result="fbSourceGraphicAlpha"
         in="fbSourceGraphic"
         values="0 0 0 -1 0 0 0 0 -1 0 0 0 0 -1 0 0 0 0 1 0"
         id="feColorMatrix39" />
      <feColorMatrix
         id="feColorMatrix40"
         values="-1 0 0 0 1 0 -1 0 0 1 0 0 -1 0 1 0.21 0.72 0.07 1 0 "
         result="color2"
         in="fbSourceGraphic" />
    </filter>
    <filter
       style="color-interpolation-filters:sRGB"
       inkscape:label="Invert"
       id="filter13"
       x="0"
       y="0"
       width="1"
       height="1">
      <feColorMatrix
         values="-1 0 0 0 1 0 -1 0 0 1 0 0 -1 0 1 0.21 0.72 0.07 1 0 "
         result="fbSourceGraphic"
         id="feColorMatrix13" />
      <feColorMatrix
         result="fbSourceGraphicAlpha"
         in="fbSourceGraphic"
         values="0 0 0 -1 0 0 0 0 -1 0 0 0 0 -1 0 0 0 0 1 0"
         id="feColorMatrix25" />
      <feColorMatrix
         id="feColorMatrix26"
         values="-1 0 0 0 1 0 -1 0 0 1 0 0 -1 0 1 0.21 0.72 0.07 1 0 "
         result="fbSourceGraphic"
         in="fbSourceGraphic" />
      <feColorMatrix
         result="fbSourceGraphicAlpha"
         in="fbSourceGraphic"
         values="0 0 0 -1 0 0 0 0 -1 0 0 0 0 -1 0 0 0 0 1 0"
         id="feColorMatrix41" />
      <feColorMatrix
         id="feColorMatrix42"
         values="-1 0 0 0 1 0 -1 0 0 1 0 0 -1 0 1 0.21 0.72 0.07 1 0 "
         result="color2"
         in="fbSourceGraphic" />
    </filter>
    <filter
       style="color-interpolation-filters:sRGB"
       inkscape:label="Invert"
       id="filter14"
       x="-0.024880592"
       y="-0.1396414"
       width="1.0499358"
       height="1.2792828">
      <feColorMatrix
         values="-1 0 0 0 1 0 -1 0 0 1 0 0 -1 0 1 0.21 0.72 0.07 1 0 "
         result="fbSourceGraphic"
         id="feColorMatrix14" />
      <feColorMatrix
         result="fbSourceGraphicAlpha"
         in="fbSourceGraphic"
         values="0 0 0 -1 0 0 0 0 -1 0 0 0 0 -1 0 0 0 0 1 0"
         id="feColorMatrix27" />
      <feColorMatrix
         id="feColorMatrix28"
         values="-1 0 0 0 1 0 -1 0 0 1 0 0 -1 0 1 0.21 0.72 0.07 1 0 "
         result="fbSourceGraphic"
         in="fbSourceGraphic" />
      <feColorMatrix
         result="fbSourceGraphicAlpha"
         in="fbSourceGraphic"
         values="0 0 0 -1 0 0 0 0 -1 0 0 0 0 -1 0 0 0 0 1 0"
         id="feColorMatrix43" />
      <feColorMatrix
         id="feColorMatrix44"
         values="-1 0 0 0 1 0 -1 0 0 1 0 0 -1 0 1 0.21 0.72 0.07 1 0 "
         result="color2"
         in="fbSourceGraphic" />
    </filter>
    <filter
       style="color-interpolation-filters:sRGB"
       inkscape:label="Invert"
       id="filter15"
       x="-0.012594116"
       y="-0.12366442"
       width="1.0251882"
       height="1.2473288">
      <feColorMatrix
         values="-1 0 0 0 1 0 -1 0 0 1 0 0 -1 0 1 0.21 0.72 0.07 1 0 "
         result="fbSourceGraphic"
         id="feColorMatrix15" />
      <feColorMatrix
         result="fbSourceGraphicAlpha"
         in="fbSourceGraphic"
         values="0 0 0 -1 0 0 0 0 -1 0 0 0 0 -1 0 0 0 0 1 0"
         id="feColorMatrix29" />
      <feColorMatrix
         id="feColorMatrix30"
         values="-1 0 0 0 1 0 -1 0 0 1 0 0 -1 0 1 0.21 0.72 0.07 1 0 "
         result="fbSourceGraphic"
         in="fbSourceGraphic" />
      <feColorMatrix
         result="fbSourceGraphicAlpha"
         in="fbSourceGraphic"
         values="0 0 0 -1 0 0 0 0 -1 0 0 0 0 -1 0 0 0 0 1 0"
         id="feColorMatrix45" />
      <feColorMatrix
         id="feColorMatrix46"
         values="-1 0 0 0 1 0 -1 0 0 1 0 0 -1 0 1 0.21 0.72 0.07 1 0 "
         result="color2"
         in="fbSourceGraphic" />
    </filter>
    <filter
       style="color-interpolation-filters:sRGB"
       inkscape:label="Invert"
       id="filter16"
       x="-0.014597553"
       y="-0.011027854"
       width="1.0291953"
       height="1.0220557">
      <feColorMatrix
         values="-1 0 0 0 1 0 -1 0 0 1 0 0 -1 0 1 0.21 0.72 0.07 1 0 "
         result="fbSourceGraphic"
         id="feColorMatrix16" />
      <feColorMatrix
         result="fbSourceGraphicAlpha"
         in="fbSourceGraphic"
         values="0 0 0 -1 0 0 0 0 -1 0 0 0 0 -1 0 0 0 0 1 0"
         id="feColorMatrix31" />
      <feColorMatrix
         id="feColorMatrix32"
         values="-1 0 0 0 1 0 -1 0 0 1 0 0 -1 0 1 0.21 0.72 0.07 1 0 "
         result="fbSourceGraphic"
         in="fbSourceGraphic" />
      <feColorMatrix
         result="fbSourceGraphicAlpha"
         in="fbSourceGraphic"
         values="0 0 0 -1 0 0 0 0 -1 0 0 0 0 -1 0 0 0 0 1 0"
         id="feColorMatrix47" />
      <feColorMatrix
         id="feColorMatrix48"
         values="-1 0 0 0 1 0 -1 0 0 1 0 0 -1 0 1 0.21 0.72 0.07 1 0 "
         result="color2"
         in="fbSourceGraphic" />
    </filter>
  </defs>
  <sodipodi:namedview
     id="namedview9"
     pagecolor="#ffffff"
     bordercolor="#000000"
     borderopacity="0.25"
     inkscape:showpageshadow="2"
     inkscape:pageopacity="0.0"
     inkscape:pagecheckerboard="0"
     inkscape:deskcolor="#d1d1d1"
     showgrid="false" />
  <path
     d="m 207.285,229.378 h 2.933 l -0.465,-2.896 -4.64,-28.908 -25.227,-157.1376 c -0.004,-0.7834 -0.061,-2.1115 -0.96,-3.3909 -0.799,-1.1359 -2.045,-1.9464 -3.656,-2.5973 C 171.03,27.8496 162.117,20.1187 151.073,13.9773 139.54,7.56454 125.32,2.67932 110.973,2.67932 c -19.3192,0 -37.009,7.66778 -49.8081,15.97628 -6.4115,4.162 -11.6622,8.5272 -15.3395,12.262 -1.8345,1.8632 -3.3172,3.6098 -4.3609,5.131 -0.521,0.7595 -0.9627,1.5062 -1.2824,2.217 -0.2739,0.6089 -0.5301,1.3462 -0.5759,2.1266 L 9.73164,226.482 9.26668,229.378 H 12.2 Z"
     stroke="#000000"
     stroke-width="5"
     id="path1"
     style="filter:url(#filter16)" />
  <path
     d="m 10.4896,224.048 v -10.873 c 0.1383,-0.118 0.3797,-0.293 0.7721,-0.509 1.0913,-0.6 2.8615,-1.257 5.3671,-1.924 4.9715,-1.323 12.2794,-2.54 21.4433,-3.572 18.2949,-2.058 43.6355,-3.338 71.6709,-3.338 28.035,0 53.375,1.28 71.67,3.338 9.164,1.032 16.472,2.249 21.443,3.572 2.506,0.667 4.276,1.324 5.367,1.924 0.393,0.216 0.634,0.391 0.772,0.509 v 10.873 z"
     stroke="#000000"
     stroke-width="5"
     id="path2"
     style="filter:url(#filter15)" />
  <path
     d="m 109.743,217.597 c 28.035,0 53.375,1.28 71.67,3.339 9.164,1.031 16.472,2.248 21.443,3.571 2.506,0.667 4.276,1.324 5.367,1.924 0.074,0.041 0.142,0.08 0.206,0.118 -0.064,0.037 -0.132,0.076 -0.206,0.117 -1.091,0.6 -2.861,1.257 -5.367,1.924 -4.971,1.323 -12.279,2.54 -21.443,3.572 -18.295,2.059 -43.635,3.338 -71.67,3.338 -28.0354,0 -53.376,-1.279 -71.6709,-3.338 -9.1639,-1.032 -16.4718,-2.249 -21.4433,-3.572 -2.5056,-0.667 -4.2758,-1.324 -5.3671,-1.924 -0.0738,-0.041 -0.1423,-0.08 -0.2057,-0.117 0.0634,-0.038 0.1318,-0.077 0.2056,-0.118 1.0913,-0.6 2.8616,-1.257 5.3671,-1.924 4.9716,-1.323 12.2795,-2.54 21.4434,-3.571 18.2949,-2.059 43.6355,-3.339 71.6709,-3.339 z"
     fill="#d9d9d9"
     stroke="#000000"
     stroke-width="5"
     id="path3"
     style="filter:url(#filter14)" />
  <path
     d="m 109.743,215.097 c -56.1968,0 -101.75338,5.128 -101.75338,11.451 0,0.056 0.00432,0.111 0.01188,0.166 0.7844,-6.248 46.0352,-11.286 101.7415,-11.286 55.705,0 100.956,5.038 101.74,11.286 0.008,-0.055 0.012,-0.11 0.012,-0.166 0,-6.323 -45.556,-11.451 -101.752,-11.451 z"
     fill="#ebf2b0"
     id="path4"
     style="filter:url(#filter13)" />
  <mask
     id="path-5-inside-1_90_188"
     fill="#ffffff">
    <path
       d="m 199.727,226.77 c -0.559,5.124 -40.633,9.26 -89.984,9.26 -49.3521,0 -89.4255,-4.136 -89.9852,-9.26 -0.0032,0.037 -0.0065,0.072 -0.0065,0.109 0,5.174 40.2906,9.369 89.9917,9.369 49.7,0 89.991,-4.195 89.991,-9.369 0,-0.037 -0.004,-0.072 -0.007,-0.109 z"
       id="path5" />
  </mask>
  <path
     d="m 199.727,226.77 0.996,-0.088 -1.99,-0.021 z m -179.9692,0 0.9941,-0.109 -1.9902,0.021 z m 178.9752,-0.109 c 0,0.001 0,0.006 -0.004,0.017 -0.005,0.012 -0.013,0.032 -0.029,0.059 -0.034,0.057 -0.098,0.141 -0.213,0.248 -0.236,0.219 -0.622,0.475 -1.199,0.754 -1.15,0.557 -2.873,1.119 -5.151,1.668 -4.542,1.093 -11.095,2.085 -19.208,2.92 -16.213,1.67 -38.534,2.703 -63.186,2.703 v 2 c 24.699,0 47.091,-1.034 63.391,-2.713 8.145,-0.839 14.8,-1.842 19.471,-2.966 2.329,-0.56 4.214,-1.162 5.555,-1.812 0.669,-0.324 1.25,-0.682 1.686,-1.087 0.434,-0.403 0.804,-0.925 0.875,-1.573 z m -88.99,8.369 c -24.6528,0 -46.9734,-1.033 -63.1873,-2.703 -8.1126,-0.835 -14.6652,-1.827 -19.2078,-2.92 -2.2781,-0.549 -4.001,-1.111 -5.151,-1.668 -0.5764,-0.279 -0.9629,-0.535 -1.1986,-0.754 -0.1151,-0.107 -0.1791,-0.191 -0.213,-0.248 -0.0164,-0.027 -0.0247,-0.047 -0.0288,-0.059 -0.004,-0.011 -0.0046,-0.016 -0.0046,-0.017 l -1.9882,0.218 c 0.0708,0.648 0.4409,1.17 0.8749,1.573 0.4369,0.405 1.0169,0.763 1.6862,1.087 1.3415,0.65 3.2266,1.252 5.5552,1.812 4.6709,1.124 11.3261,2.127 19.4708,2.966 16.3007,1.679 38.6929,2.713 63.3922,2.713 z m -90.9813,-8.348 c -0.0024,0.027 -0.0104,0.108 -0.0104,0.197 h 2 c 0,0.011 -5e-4,0.016 -2e-4,0.013 10e-5,-0.002 4e-4,-0.005 9e-4,-0.011 5e-4,-0.006 0.001,-0.013 0.002,-0.023 z m -0.0104,0.197 c 0,0.672 0.3318,1.229 0.7488,1.656 0.4139,0.425 0.9775,0.794 1.6261,1.123 1.3008,0.662 3.156,1.272 5.4581,1.839 4.6202,1.137 11.2629,2.152 19.4214,3.001 16.3293,1.7 38.8635,2.75 63.7373,2.75 v -2 c -24.8273,0 -47.289,-1.048 -63.5302,-2.739 -8.1268,-0.846 -14.6631,-1.85 -19.1505,-2.954 -2.2518,-0.554 -3.9325,-1.121 -5.0292,-1.679 -0.5502,-0.28 -0.9008,-0.532 -1.1013,-0.737 -0.1975,-0.203 -0.1805,-0.285 -0.1805,-0.26 z m 90.9917,10.369 c 24.873,0 47.407,-1.05 63.736,-2.75 8.159,-0.849 14.801,-1.864 19.422,-3.001 2.302,-0.567 4.157,-1.177 5.458,-1.839 0.648,-0.329 1.212,-0.698 1.626,-1.123 0.417,-0.427 0.749,-0.984 0.749,-1.656 h -2 c 0,-0.025 0.017,0.057 -0.181,0.26 -0.2,0.205 -0.551,0.457 -1.101,0.737 -1.097,0.558 -2.778,1.125 -5.029,1.679 -4.488,1.104 -11.024,2.108 -19.151,2.954 -16.241,1.691 -38.702,2.739 -63.529,2.739 z m 90.991,-10.369 c 0,-0.089 -0.008,-0.17 -0.011,-0.197 l -1.992,0.176 c 0.001,0.01 0.002,0.017 0.002,0.023 0.001,0.006 0.001,0.009 0.001,0.011 0,0.003 0,-0.002 0,-0.013 z"
     fill="#000000"
     mask="url(#path-5-inside-1_90_188)"
     id="path6"
     style="filter:url(#filter12)" />
  <path
     d="m 62.1877,21.1684 c 2.813,-1.8719 5.8725,-3.7047 9.1427,-5.4168 -3.0617,1.7426 -5.9443,3.5931 -8.6201,5.4751 -6.1199,4.3043 -11.1703,8.782 -14.825,12.5322 -1.8271,1.8749 -3.3088,3.5715 -4.4022,4.977 -0.209,0.2687 -0.4049,0.5281 -0.5871,0.7772 0.0033,-0.0077 0.0067,-0.0155 0.0101,-0.0233 0.2158,-0.4985 0.5431,-1.086 0.9832,-1.7514 0.88,-1.3306 2.1882,-2.9394 3.8866,-4.7224 3.3952,-3.5645 8.3193,-7.7935 14.4118,-11.8476 z m 94.5873,0.0583 c -2.676,-1.8819 -5.558,-3.7322 -8.62,-5.4747 3.27,1.712 6.33,3.5447 9.142,5.4164 6.093,4.0541 11.017,8.2831 14.412,11.8476 1.698,1.783 3.007,3.3918 3.887,4.7224 0.44,0.6654 0.767,1.2529 0.983,1.7514 0.003,0.0069 0.006,0.0139 0.009,0.0208 -0.182,-0.2484 -0.377,-0.507 -0.585,-0.7747 -1.094,-1.4055 -2.576,-3.1021 -4.403,-4.977 -3.655,-3.7502 -8.705,-8.2279 -14.825,-12.5322 z"
     stroke="#000000"
     id="path7"
     style="filter:url(#filter11)" />
  <path
     d="m 0.886017,219.987 v 0.5 h 0.500003 6.60579 0.5 v -0.5 -2.497 -0.5 h -0.5 -3.59435 C 5.33291,159.329 52.531,112.711 110.411,112.711 c 57.879,0 105.076,46.618 106.012,104.279 h -4.927 -0.5 v 0.5 2.497 0.5 h 0.5 7.938 0.5 v -0.5 -1.249 c 0,-14.783 -2.896,-29.127 -8.607,-42.632 -5.516,-13.042 -13.414,-24.755 -23.471,-34.813 -10.057,-10.058 -21.771,-17.955 -34.813,-23.471 -13.504,-5.712 -27.848,-8.608 -42.632,-8.608 -14.7843,0 -29.1286,2.896 -42.6325,8.608 -13.0421,5.516 -24.756,13.413 -34.8137,23.471 -10.0578,10.058 -17.9544,21.771 -23.47142,34.813 l 0.42245,0.179 -0.42246,-0.179 c -5.71154,13.505 -8.607353,27.849 -8.607353,42.632 z"
     fill="#212121"
     stroke="#000000"
     id="path8"
     style="filter:url(#filter10)" />
  <path
     d="m 76.1456,111.655 c 10.8184,-2.947 22.0982,-4.468 33.6114,-4.468 11.446,0 22.662,1.503 33.42,4.416 2.38,0.645 3.767,3.121 3.098,5.495 -0.672,2.381 -3.16,3.756 -5.533,3.056 -10.124,-2.986 -19.427,-4.053 -30.985,-4.053 -11.4862,0 -21.0459,1.148 -31.1739,4.116 -2.4515,0.719 -5.0035,-0.765 -5.5837,-3.251 l -0.0032,-0.012 c -0.5435,-2.325 0.8449,-4.671 3.1494,-5.299 z"
     fill="#2b2f2e"
     id="path9"
     style="filter:url(#filter9)" />
</svg>
