<svg width="387" height="65" viewBox="0 0 387 65" fill="none" xmlns="http://www.w3.org/2000/svg">
<path d="M6.528 24.28H13.92C20.928 24.28 22.944 20.296 22.944 16.36C22.944 12.376 20.88 8.44 13.92 8.44H6.528V24.28ZM16.32 24.568C23.424 25.336 26.976 29.512 26.976 33.736C26.976 38.392 22.656 43 13.92 43H3.072V42.52H4.032V8.44H3.072V7.96H13.92C22.608 7.96 25.536 12.136 25.536 16.36C25.536 20.152 23.184 23.896 16.32 24.568ZM13.92 42.52C20.928 42.52 24.384 38.056 24.384 33.64C24.384 29.176 20.88 24.76 13.92 24.76H6.528V42.52H13.92ZM51.5333 43.576V35.416C49.9493 40.552 45.6293 43.528 41.1653 43.528C36.8453 43.528 32.0933 40.696 32.0933 34.312V19.48H31.1333V19H35.4533V19.48H34.4933V34.312C34.4933 40.36 37.6613 43 41.3093 43C46.0613 43 51.5333 38.488 51.5333 31.048V19H54.8933V19.48H53.9333V42.52H54.8933V43L51.5333 43.576ZM72.3353 19C65.7113 19 62.3993 24.952 62.3993 30.952C62.3993 36.952 65.7113 43 72.3353 43C76.1753 43 78.9113 41.032 80.5433 38.2H82.7032C80.6873 41.272 77.2793 43.48 72.3353 43.48C64.0793 43.48 59.9513 37.192 59.9513 30.952C59.9513 24.712 64.0793 18.52 72.3353 18.52C76.9913 18.52 80.3033 20.728 82.2233 23.8H80.0153C78.4793 20.968 75.9353 19 72.3353 19ZM100.745 19.48V19H104.201V19.48H102.761L93.2573 29.128L104.825 42.52H106.217V43H102.041L90.3773 29.608V42.52H91.3372V43H87.0173V42.52H87.9773V7.96H87.0173V7.48L90.3773 6.904V25.864L92.6813 28.504L101.801 19.48H100.745ZM121.177 30.04C126.553 30.04 129.193 27.88 129.193 25.144C129.193 22.408 126.553 19 121.225 19C114.937 19 111.721 24.376 111.385 30.04H121.177ZM108.889 30.952C108.889 24.76 112.969 18.52 121.225 18.52H121.273C128.185 18.568 131.641 22.168 131.641 25.144C131.641 28.12 128.185 30.52 121.177 30.52H111.337V30.952C111.337 36.952 114.649 43 121.273 43C125.113 43 127.849 41.032 129.481 38.2H131.641C129.625 41.272 126.217 43.48 121.273 43.48C113.017 43.48 108.889 37.192 108.889 30.952ZM137.9 34.264V19.48H136.076V19H137.9V10.264H136.94V9.784L140.3 9.304V19H151.148V24.28H150.476C150.476 21.352 148.796 19.48 146.156 19.48H140.3V34.264C140.3 39.736 143.084 42.616 146.012 42.616C148.076 42.616 150.236 41.128 151.484 38.056H153.692C152.06 41.368 148.892 43 145.82 43C141.788 43 137.9 40.12 137.9 34.264ZM157.612 24.76C157.612 21.64 160.444 18.52 166.156 18.52C170.38 18.52 173.356 20.728 175.084 23.8H172.876C171.532 20.968 169.276 19 166.156 19C162.076 19 160.06 21.88 160.06 24.76C160.06 32.968 175.564 29.512 175.564 37.24C175.564 40.36 172.588 43.48 166.54 43.48C161.884 43.48 158.572 41.272 156.652 38.2H158.86C160.396 41.032 162.94 43 166.54 43C170.956 43 173.116 40.12 173.116 37.24C173.116 29.224 157.612 32.584 157.612 24.76Z" fill="black"/>
<path d="M207.473 30.952C207.473 36.952 210.785 43 217.457 43C224.081 43 227.393 37.048 227.393 31.048C227.393 25.048 224.081 19 217.409 19C210.785 19 207.473 24.952 207.473 30.952ZM217.745 18.52C225.713 18.52 229.841 24.808 229.841 31.048C229.841 37.288 225.713 43.48 217.793 43.48C212.705 43.48 209.249 40.888 207.473 37.384V43H204.113V42.52H205.073V7.96001H204.113V7.48001L207.473 6.90401V24.568C209.249 21.112 212.657 18.52 217.745 18.52ZM240.524 55H238.988L244.652 43H243.068L234.284 19.48H233.132V19H237.548V19.48H236.78L245.132 41.56L253.484 19.528H252.716V19.048H255.116V19.528H254.06C249.548 31.384 245.132 43.288 240.524 55Z" fill="black"/>
<path d="M363.45 14.6013V23.993C365.273 18.0817 370.245 14.7118 375.383 14.7118C380.355 14.7118 385.824 17.916 385.824 25.2636V42.3344H386.929V42.8869H381.957V42.3344H383.062V25.2636C383.062 18.3027 379.415 15.2642 375.217 15.2642C369.748 15.2642 363.45 20.4573 363.45 29.0203V42.8869H359.582V42.3344H360.687V15.8167H359.582V15.2642L363.45 14.6013Z" fill="black"/>
<path d="M349.379 33.1637V26.5342C344.131 29.7937 333.302 29.2413 333.302 36.2574C333.302 39.5721 335.789 42.8868 339.987 42.8868C344.131 42.8868 348.826 39.6826 349.379 33.1637ZM349.379 38.0253C347.28 41.7267 343.357 43.4393 339.49 43.4393C333.91 43.4393 330.485 39.8483 330.485 36.2574C330.485 27.3629 349.434 31.3406 349.434 21.8936C349.434 18.5789 346.561 15.2642 342.142 15.2642C338.496 15.2642 335.568 17.5293 334.131 20.7887H331.59C333.468 17.253 337.28 14.7117 342.363 14.7117C348.384 14.7117 352.141 18.3027 352.141 21.8936V42.2239L353.246 42.3344V42.8868H349.379V38.0253Z" fill="black"/>
<path d="M323.632 1.34241V42.3344H324.736V42.8868H319.764V42.3344H320.869V2.5578H319.764V2.00535L323.632 1.34241Z" fill="black"/>
<path d="M308.036 6.81884V6.85872L308.043 6.8981L312.685 35.8151L313.445 40.549H278.763L284.165 6.8981L284.171 6.85872V6.8359C284.174 6.82813 284.18 6.80898 284.194 6.7767C284.222 6.71416 284.271 6.62792 284.346 6.51836C284.496 6.2997 284.728 6.02265 285.04 5.70569C285.662 5.07346 286.572 4.31438 287.698 3.58362C289.954 2.11898 293.025 0.801956 296.33 0.801956C298.76 0.801956 301.213 1.63364 303.234 2.75755C305.267 3.88807 306.791 5.27328 307.41 6.31242L307.503 6.46924L307.676 6.52905C307.94 6.62095 308.017 6.69123 308.032 6.70736C308.033 6.71911 308.036 6.74994 308.036 6.81884ZM308.03 6.70121C308.03 6.70104 308.031 6.70174 308.031 6.70368C308.031 6.7023 308.03 6.70136 308.03 6.70121Z" stroke="black"/>
<path d="M277.902 40.4885V38.5498C277.927 38.5307 277.965 38.5044 278.023 38.4725C278.219 38.3646 278.541 38.2448 279.001 38.1225C279.911 37.8802 281.252 37.6567 282.936 37.4672C286.296 37.089 290.952 36.8539 296.104 36.8539C301.256 36.8539 305.911 37.089 309.272 37.4672C310.956 37.6567 312.296 37.8802 313.207 38.1225C313.667 38.2448 313.988 38.3646 314.185 38.4725C314.243 38.5044 314.281 38.5307 314.306 38.5498V40.4885H277.902Z" stroke="black"/>
<path d="M296.104 39.3838C301.256 39.3838 305.911 39.6189 309.272 39.9971C310.956 40.1866 312.296 40.4101 313.207 40.6525C313.647 40.7695 313.961 40.8842 314.159 40.9885C313.961 41.0928 313.647 41.2076 313.207 41.3246C312.296 41.567 310.956 41.7905 309.272 41.9799C305.911 42.3581 301.256 42.5932 296.104 42.5932C290.952 42.5932 286.296 42.3581 282.936 41.9799C281.252 41.7905 279.911 41.567 279.001 41.3246C278.561 41.2076 278.247 41.0928 278.049 40.9885C278.247 40.8842 278.561 40.7695 279.001 40.6525C279.911 40.4101 281.252 40.1866 282.936 39.9971C286.296 39.6189 290.952 39.3838 296.104 39.3838Z" fill="#D9D9D9" stroke="black"/>
<path d="M296.104 38.8838C285.775 38.8838 277.402 39.8262 277.402 40.9885C277.402 40.9986 277.403 41.0087 277.404 41.0189C277.549 39.8705 285.865 38.9445 296.104 38.9445C306.342 38.9445 314.659 39.8705 314.803 41.0189C314.805 41.0087 314.806 40.9986 314.806 40.9885C314.806 39.8262 306.432 38.8838 296.104 38.8838Z" fill="#EBF2B0"/>
<mask id="path-10-inside-1_145_196" fill="white">
<path d="M312.643 41.0292C312.54 41.9711 305.174 42.7312 296.104 42.7312C287.033 42.7312 279.668 41.9711 279.565 41.0292C279.565 41.036 279.564 41.0425 279.564 41.0493C279.564 42.0003 286.969 42.7711 296.104 42.7711C305.239 42.7711 312.644 42.0003 312.644 41.0493C312.644 41.0425 312.643 41.036 312.643 41.0292Z"/>
</mask>
<path d="M312.643 41.0292L313.639 40.9413L311.649 40.9206L312.643 41.0292ZM279.565 41.0292L280.559 40.9206L278.569 40.9413L279.565 41.0292ZM311.649 40.9206C311.678 40.6515 311.824 40.5035 311.86 40.4702C311.899 40.4342 311.906 40.4399 311.838 40.4728C311.705 40.5374 311.455 40.6245 311.057 40.7202C310.274 40.9085 309.112 41.0864 307.634 41.2387C304.689 41.542 300.616 41.7312 296.104 41.7312V43.7312C300.662 43.7312 304.807 43.5404 307.839 43.2281C309.349 43.0726 310.614 42.8839 311.525 42.6647C311.973 42.5568 312.386 42.43 312.71 42.2727C312.871 42.1947 313.057 42.0875 313.219 41.9369C313.379 41.789 313.594 41.5246 313.637 41.1378L311.649 40.9206ZM296.104 41.7312C291.592 41.7312 287.519 41.542 284.574 41.2387C283.096 41.0864 281.934 40.9085 281.151 40.7202C280.753 40.6245 280.503 40.5374 280.369 40.4728C280.301 40.4399 280.309 40.4342 280.348 40.4702C280.384 40.5035 280.53 40.6515 280.559 40.9206L278.571 41.1378C278.613 41.5246 278.829 41.789 278.988 41.9369C279.151 42.0875 279.336 42.1947 279.497 42.2727C279.822 42.43 280.235 42.5568 280.683 42.6647C281.594 42.8839 282.859 43.0726 284.369 43.2281C287.401 43.5404 291.545 43.7312 296.104 43.7312V41.7312ZM278.569 40.9413C278.569 40.9414 278.568 40.9561 278.567 40.972C278.565 40.9897 278.564 41.0167 278.564 41.0493H280.564C280.564 41.0751 280.563 41.0954 280.562 41.1065C280.561 41.1157 280.561 41.1238 280.561 41.1171L278.569 40.9413ZM278.564 41.0493C278.564 41.4576 278.767 41.7532 278.934 41.9236C279.097 42.0908 279.287 42.2065 279.447 42.2876C279.769 42.4516 280.181 42.5813 280.625 42.6905C281.528 42.9129 282.792 43.104 284.305 43.2614C287.342 43.5776 291.513 43.7711 296.104 43.7711V41.7711C291.56 41.7711 287.461 41.5792 284.512 41.2722C283.031 41.118 281.873 40.9381 281.103 40.7485C280.709 40.6517 280.472 40.5652 280.353 40.505C280.292 40.474 280.315 40.4756 280.365 40.527C280.419 40.5817 280.564 40.7598 280.564 41.0493H278.564ZM296.104 43.7711C300.695 43.7711 304.866 43.5776 307.903 43.2614C309.415 43.104 310.68 42.9129 311.583 42.6905C312.027 42.5813 312.439 42.4516 312.761 42.2876C312.921 42.2065 313.111 42.0908 313.274 41.9236C313.441 41.7532 313.644 41.4576 313.644 41.0493H311.644C311.644 40.7598 311.789 40.5817 311.843 40.527C311.893 40.4756 311.915 40.474 311.854 40.505C311.736 40.5652 311.498 40.6517 311.105 40.7485C310.334 40.9381 309.177 41.118 307.696 41.2722C304.747 41.5792 300.648 41.7711 296.104 41.7711V43.7711ZM313.644 41.0493C313.644 41.0167 313.642 40.9897 313.641 40.972C313.64 40.9561 313.639 40.9414 313.639 40.9413L311.646 41.1171C311.647 41.1238 311.646 41.1157 311.646 41.1065C311.645 41.0954 311.644 41.0751 311.644 41.0493H313.644Z" fill="black" mask="url(#path-10-inside-1_145_196)"/>
<mask id="path-12-inside-2_145_196" fill="white">
<path d="M296.104 0.301956C289.448 0.301956 284.009 6.0988 283.625 7.10817L283.671 6.81884C283.671 5.76221 289.238 0.301956 296.104 0.301956C302.97 0.301956 308.537 5.76221 308.537 6.81884L308.583 7.10817C308.199 6.0988 302.759 0.301956 296.104 0.301956Z"/>
</mask>
<path d="M283.625 7.10817L282.637 6.95026L284.56 7.46346L283.625 7.10817ZM283.671 6.81884L284.659 6.97676L284.671 6.8983V6.81884H283.671ZM308.537 6.81884H307.537V6.89863L307.549 6.97741L308.537 6.81884ZM308.583 7.10817L307.648 7.46362L309.57 6.94961L308.583 7.10817ZM296.104 -0.698044C292.493 -0.698044 289.269 0.868684 286.937 2.5086C285.764 3.33356 284.793 4.19344 284.085 4.92095C283.73 5.28443 283.435 5.62171 283.209 5.91189C283.005 6.17444 282.795 6.47611 282.69 6.75288L284.56 7.46346C284.55 7.48789 284.595 7.38761 284.788 7.13994C284.959 6.9199 285.203 6.63871 285.517 6.31679C286.144 5.67351 287.021 4.89492 288.088 4.1445C290.236 2.63365 293.059 1.30196 296.104 1.30196V-0.698044ZM284.612 7.26609L284.659 6.97676L282.684 6.66093L282.637 6.95026L284.612 7.26609ZM284.671 6.81884C284.671 6.94936 284.635 7.0115 284.653 6.96885C284.665 6.94075 284.696 6.88068 284.758 6.78707C284.881 6.60062 285.084 6.34719 285.372 6.04452C285.946 5.44238 286.798 4.70777 287.867 3.99669C290.012 2.56899 292.929 1.30196 296.104 1.30196V-0.698044C292.412 -0.698044 289.113 0.765043 286.759 2.33163C285.577 3.1177 284.609 3.94627 283.924 4.6651C283.583 5.02292 283.298 5.36943 283.09 5.68383C282.986 5.84065 282.89 6.00624 282.818 6.17421C282.751 6.32762 282.671 6.55625 282.671 6.81884H284.671ZM296.104 1.30196C299.279 1.30196 302.196 2.56899 304.341 3.99668C305.41 4.70776 306.262 5.44238 306.836 6.04452C307.124 6.34719 307.327 6.60062 307.45 6.78707C307.512 6.88068 307.543 6.94075 307.555 6.96885C307.573 7.0115 307.537 6.94936 307.537 6.81884H309.537C309.537 6.55625 309.457 6.32762 309.39 6.17421C309.317 6.00624 309.222 5.84065 309.118 5.68383C308.91 5.36943 308.625 5.02292 308.284 4.6651C307.599 3.94627 306.63 3.1177 305.449 2.33164C303.095 0.765048 299.796 -0.698044 296.104 -0.698044V1.30196ZM307.549 6.97741L307.596 7.26674L309.57 6.94961L309.524 6.66028L307.549 6.97741ZM309.518 6.75272C309.413 6.47603 309.203 6.17441 308.999 5.91185C308.773 5.62169 308.478 5.28441 308.123 4.92093C307.414 4.19344 306.444 3.33356 305.271 2.5086C302.939 0.868689 299.715 -0.698044 296.104 -0.698044V1.30196C299.149 1.30196 301.972 2.63364 304.12 4.1445C305.187 4.89492 306.064 5.67351 306.691 6.31681C307.005 6.63873 307.249 6.91993 307.42 7.13998C307.613 7.38764 307.658 7.48797 307.648 7.46362L309.518 6.75272Z" fill="black" mask="url(#path-12-inside-2_145_196)"/>
<path d="M276.189 39.7825H277.403V39.3236H276.649C276.772 28.6327 285.507 19.9739 296.227 19.9739C306.946 19.9739 315.681 28.6327 315.804 39.3236H314.806V39.7825H316.265V39.553C316.265 36.8481 315.735 34.2239 314.69 31.7532C313.681 29.3671 312.236 27.2242 310.396 25.384C308.556 23.5437 306.413 22.0989 304.027 21.0897C301.556 20.0448 298.932 19.515 296.227 19.515C293.522 19.515 290.897 20.0448 288.427 21.0897C286.041 22.0989 283.898 23.5437 282.058 25.384C280.217 27.2242 278.773 29.3671 277.763 31.7532C276.718 34.2239 276.189 36.8481 276.189 39.553V39.7825Z" fill="#212121"/>
<path d="M289.929 19.8716C291.917 19.3299 293.991 19.0505 296.107 19.0505C298.21 19.0505 300.272 19.3267 302.249 19.8621C302.686 19.9806 302.941 20.4358 302.818 20.8721C302.695 21.3097 302.238 21.5623 301.801 21.4336C299.941 20.885 298.231 20.6888 296.107 20.6888C293.995 20.6888 292.238 20.8999 290.377 21.4454C289.926 21.5774 289.457 21.3048 289.351 20.8478L289.35 20.8457C289.25 20.4183 289.505 19.987 289.929 19.8716Z" fill="#2B2F2E"/>
</svg>
