<svg width="387" height="61" viewBox="0 0 387 61" fill="none" xmlns="http://www.w3.org/2000/svg">
<path d="M6.528 20.28H13.92C20.928 20.28 22.944 16.296 22.944 12.36C22.944 8.376 20.88 4.44 13.92 4.44H6.528V20.28ZM16.32 20.568C23.424 21.336 26.976 25.512 26.976 29.736C26.976 34.392 22.656 39 13.92 39H3.072V38.52H4.032V4.44H3.072V3.96H13.92C22.608 3.96 25.536 8.136 25.536 12.36C25.536 16.152 23.184 19.896 16.32 20.568ZM13.92 38.52C20.928 38.52 24.384 34.056 24.384 29.64C24.384 25.176 20.88 20.76 13.92 20.76H6.528V38.52H13.92ZM51.5333 39.576V31.416C49.9493 36.552 45.6293 39.528 41.1653 39.528C36.8453 39.528 32.0933 36.696 32.0933 30.312V15.48H31.1333V15H35.4533V15.48H34.4933V30.312C34.4933 36.36 37.6613 39 41.3093 39C46.0613 39 51.5333 34.488 51.5333 27.048V15H54.8933V15.48H53.9333V38.52H54.8933V39L51.5333 39.576ZM72.3353 15C65.7113 15 62.3993 20.952 62.3993 26.952C62.3993 32.952 65.7113 39 72.3353 39C76.1753 39 78.9113 37.032 80.5433 34.2H82.7032C80.6873 37.272 77.2793 39.48 72.3353 39.48C64.0793 39.48 59.9513 33.192 59.9513 26.952C59.9513 20.712 64.0793 14.52 72.3353 14.52C76.9913 14.52 80.3033 16.728 82.2233 19.8H80.0153C78.4793 16.968 75.9353 15 72.3353 15ZM100.745 15.48V15H104.201V15.48H102.761L93.2573 25.128L104.825 38.52H106.217V39H102.041L90.3773 25.608V38.52H91.3372V39H87.0173V38.52H87.9773V3.96H87.0173V3.48L90.3773 2.904V21.864L92.6813 24.504L101.801 15.48H100.745ZM121.177 26.04C126.553 26.04 129.193 23.88 129.193 21.144C129.193 18.408 126.553 15 121.225 15C114.937 15 111.721 20.376 111.385 26.04H121.177ZM108.889 26.952C108.889 20.76 112.969 14.52 121.225 14.52H121.273C128.185 14.568 131.641 18.168 131.641 21.144C131.641 24.12 128.185 26.52 121.177 26.52H111.337V26.952C111.337 32.952 114.649 39 121.273 39C125.113 39 127.849 37.032 129.481 34.2H131.641C129.625 37.272 126.217 39.48 121.273 39.48C113.017 39.48 108.889 33.192 108.889 26.952ZM137.9 30.264V15.48H136.076V15H137.9V6.264H136.94V5.784L140.3 5.304V15H151.148V20.28H150.476C150.476 17.352 148.796 15.48 146.156 15.48H140.3V30.264C140.3 35.736 143.084 38.616 146.012 38.616C148.076 38.616 150.236 37.128 151.484 34.056H153.692C152.06 37.368 148.892 39 145.82 39C141.788 39 137.9 36.12 137.9 30.264ZM157.612 20.76C157.612 17.64 160.444 14.52 166.156 14.52C170.38 14.52 173.356 16.728 175.084 19.8H172.876C171.532 16.968 169.276 15 166.156 15C162.076 15 160.06 17.88 160.06 20.76C160.06 28.968 175.564 25.512 175.564 33.24C175.564 36.36 172.588 39.48 166.54 39.48C161.884 39.48 158.572 37.272 156.652 34.2H158.86C160.396 37.032 162.94 39 166.54 39C170.956 39 173.116 36.12 173.116 33.24C173.116 25.224 157.612 28.584 157.612 20.76Z" fill="black"/>
<path d="M207.473 26.9521C207.473 32.9521 210.785 39.0001 217.457 39.0001C224.081 39.0001 227.393 33.0481 227.393 27.0481C227.393 21.0481 224.081 15.0001 217.409 15.0001C210.785 15.0001 207.473 20.9521 207.473 26.9521ZM217.745 14.5201C225.713 14.5201 229.841 20.8081 229.841 27.0481C229.841 33.2881 225.713 39.4801 217.793 39.4801C212.705 39.4801 209.249 36.8881 207.473 33.3841V39.0001H204.113V38.5201H205.073V3.96009H204.113V3.48009L207.473 2.90409V20.5681C209.249 17.1121 212.657 14.5201 217.745 14.5201ZM240.524 51.0001H238.988L244.652 39.0001H243.068L234.284 15.4801H233.132V15.0001H237.548V15.4801H236.78L245.132 37.5601L253.484 15.5281H252.716V15.0481H255.116V15.5281H254.06C249.548 27.3841 245.132 39.2881 240.524 51.0001Z" fill="black"/>
<path d="M363.45 16.6013V25.993C365.273 20.0818 370.245 16.7118 375.383 16.7118C380.355 16.7118 385.825 19.916 385.825 27.2637V44.3344H386.929V44.8869H381.957V44.3344H383.062V27.2637C383.062 20.3028 379.416 17.2643 375.217 17.2643C369.748 17.2643 363.45 22.4573 363.45 31.0203V44.8869H359.583V44.3344H360.688V17.8167H359.583V17.2643L363.45 16.6013Z" fill="black"/>
<path d="M349.379 35.1637V28.5343C344.131 31.7937 333.303 31.2413 333.303 38.2574C333.303 41.5722 335.789 44.8869 339.988 44.8869C344.131 44.8869 348.827 41.6827 349.379 35.1637ZM349.379 40.0253C347.28 43.7267 343.358 45.4393 339.49 45.4393C333.911 45.4393 330.485 41.8484 330.485 38.2574C330.485 29.363 349.434 33.3406 349.434 23.8937C349.434 20.579 346.562 17.2642 342.142 17.2642C338.496 17.2642 335.568 19.5293 334.132 22.7888H331.59C333.469 19.2531 337.281 16.7118 342.363 16.7118C348.385 16.7118 352.141 20.3027 352.141 23.8937V44.2239L353.246 44.3344V44.8869H349.379V40.0253Z" fill="black"/>
<path d="M323.632 3.34244V44.3344H324.737V44.8869H319.765V44.3344H320.87V4.55783H319.765V4.00538L323.632 3.34244Z" fill="black"/>
<path d="M308.037 8.81889V8.85877L308.043 8.89815L312.686 37.8152L313.446 42.5491H278.763L284.166 8.89814L284.172 8.85877V8.83594C284.174 8.82818 284.18 8.80903 284.195 8.77674C284.223 8.7142 284.271 8.62796 284.347 8.51841C284.497 8.29975 284.729 8.0227 285.041 7.70574C285.663 7.07351 286.573 6.31443 287.699 5.58367C289.955 4.11902 293.025 2.802 296.331 2.802C298.76 2.802 301.213 3.63369 303.235 4.7576C305.268 5.88812 306.792 7.27333 307.41 8.31246L307.504 8.46928L307.676 8.5291C307.941 8.62099 308.017 8.69128 308.032 8.7074C308.034 8.71915 308.037 8.74998 308.037 8.81889ZM308.031 8.70124C308.031 8.70112 308.031 8.70184 308.032 8.7038C308.031 8.70235 308.031 8.70137 308.031 8.70124Z" stroke="black"/>
<path d="M277.903 42.4885V40.5498C277.927 40.5308 277.966 40.5045 278.024 40.4726C278.22 40.3646 278.542 40.2448 279.001 40.1225C279.912 39.8802 281.253 39.6567 282.936 39.4672C286.297 39.089 290.953 38.8539 296.105 38.8539C301.256 38.8539 305.912 39.089 309.273 39.4672C310.956 39.6567 312.297 39.8802 313.208 40.1225C313.667 40.2448 313.989 40.3646 314.185 40.4726C314.243 40.5045 314.282 40.5308 314.306 40.5498V42.4885H277.903Z" stroke="black"/>
<path d="M296.105 41.3838C301.256 41.3838 305.912 41.6189 309.273 41.9972C310.956 42.1866 312.297 42.4101 313.208 42.6525C313.648 42.7695 313.961 42.8843 314.159 42.9885C313.961 43.0928 313.648 43.2076 313.208 43.3246C312.297 43.567 310.956 43.7905 309.273 43.98C305.912 44.3582 301.256 44.5933 296.105 44.5933C290.953 44.5933 286.297 44.3582 282.936 43.98C281.253 43.7905 279.912 43.567 279.001 43.3246C278.561 43.2076 278.248 43.0928 278.05 42.9886C278.248 42.8843 278.561 42.7695 279.001 42.6525C279.912 42.4101 281.253 42.1866 282.936 41.9972C286.297 41.6189 290.953 41.3838 296.105 41.3838Z" fill="#D9D9D9" stroke="black"/>
<path d="M296.105 40.8838C285.776 40.8838 277.403 41.8262 277.403 42.9885C277.403 42.9986 277.404 43.0088 277.405 43.0189C277.549 41.8705 285.866 40.9446 296.105 40.9446C306.343 40.9446 314.66 41.8705 314.804 43.0189C314.805 43.0088 314.806 42.9986 314.806 42.9885C314.806 41.8262 306.433 40.8838 296.105 40.8838Z" fill="#EBF2B0"/>
<mask id="path-10-inside-1_58_68" fill="white">
<path d="M312.643 43.0292C312.54 43.9711 305.175 44.7313 296.104 44.7313C287.034 44.7313 279.669 43.9711 279.566 43.0292C279.565 43.036 279.564 43.0425 279.564 43.0493C279.564 44.0003 286.97 44.7712 296.104 44.7712C305.239 44.7712 312.644 44.0003 312.644 43.0493C312.644 43.0425 312.644 43.036 312.643 43.0292Z"/>
</mask>
<path d="M312.643 43.0292L313.639 42.9413L311.649 42.9207L312.643 43.0292ZM279.566 43.0292L280.56 42.9207L278.57 42.9413L279.566 43.0292ZM311.649 42.9207C311.678 42.6515 311.824 42.5035 311.86 42.4702C311.899 42.4342 311.907 42.4399 311.839 42.4728C311.706 42.5374 311.455 42.6245 311.057 42.7203C310.275 42.9086 309.112 43.0865 307.634 43.2387C304.69 43.542 300.616 43.7313 296.104 43.7313V45.7313C300.663 45.7313 304.808 45.5404 307.839 45.2282C309.349 45.0726 310.614 44.8839 311.525 44.6648C311.974 44.5568 312.386 44.43 312.711 44.2727C312.872 44.1947 313.057 44.0875 313.22 43.9369C313.379 43.789 313.595 43.5247 313.637 43.1378L311.649 42.9207ZM296.104 43.7313C291.592 43.7313 287.519 43.542 284.575 43.2387C283.097 43.0865 281.934 42.9086 281.152 42.7203C280.754 42.6245 280.503 42.5374 280.37 42.4728C280.302 42.4399 280.31 42.4342 280.349 42.4702C280.384 42.5035 280.53 42.6515 280.56 42.9207L278.572 43.1378C278.614 43.5247 278.829 43.789 278.989 43.9369C279.151 44.0875 279.337 44.1947 279.498 44.2727C279.822 44.43 280.235 44.5568 280.684 44.6648C281.595 44.8839 282.86 45.0726 284.37 45.2282C287.401 45.5404 291.546 45.7313 296.104 45.7313V43.7313ZM278.57 42.9413C278.57 42.9414 278.568 42.9562 278.567 42.972C278.566 42.9898 278.564 43.0167 278.564 43.0493H280.564C280.564 43.0751 280.563 43.0954 280.563 43.1065C280.562 43.1157 280.561 43.1238 280.562 43.1171L278.57 42.9413ZM278.564 43.0493C278.564 43.4576 278.768 43.7532 278.934 43.9236C279.097 44.0909 279.288 44.2066 279.447 44.2876C279.769 44.4516 280.182 44.5814 280.625 44.6906C281.529 44.9129 282.793 45.104 284.305 45.2615C287.343 45.5777 291.514 45.7712 296.104 45.7712V43.7712C291.56 43.7712 287.462 43.5792 284.512 43.2722C283.032 43.1181 281.874 42.9382 281.103 42.7485C280.71 42.6517 280.472 42.5652 280.354 42.505C280.293 42.474 280.315 42.4756 280.366 42.5271C280.419 42.5817 280.564 42.7598 280.564 43.0493H278.564ZM296.104 45.7712C300.695 45.7712 304.866 45.5777 307.903 45.2615C309.416 45.104 310.68 44.9129 311.583 44.6906C312.027 44.5814 312.439 44.4516 312.762 44.2876C312.921 44.2066 313.112 44.0909 313.275 43.9236C313.441 43.7532 313.644 43.4576 313.644 43.0493H311.644C311.644 42.7598 311.79 42.5817 311.843 42.5271C311.893 42.4756 311.916 42.474 311.855 42.505C311.736 42.5652 311.499 42.6517 311.106 42.7485C310.335 42.9382 309.177 43.1181 307.696 43.2722C304.747 43.5792 300.648 43.7712 296.104 43.7712V45.7712ZM313.644 43.0493C313.644 43.0167 313.643 42.9898 313.642 42.972C313.641 42.9562 313.639 42.9414 313.639 42.9413L311.647 43.1171C311.648 43.1238 311.647 43.1157 311.646 43.1065C311.645 43.0954 311.644 43.0751 311.644 43.0493H313.644Z" fill="black" mask="url(#path-10-inside-1_58_68)"/>
<mask id="path-12-inside-2_58_68" fill="white">
<path d="M296.105 2.302C289.449 2.302 284.009 8.09884 283.625 9.10822L283.672 8.81889C283.672 7.76225 289.238 2.302 296.105 2.302C302.971 2.302 308.537 7.76225 308.537 8.81889L308.584 9.10822C308.2 8.09884 302.76 2.302 296.105 2.302Z"/>
</mask>
<path d="M283.625 9.10822L282.638 8.9503L284.56 9.46351L283.625 9.10822ZM283.672 8.81889L284.659 8.97681L284.672 8.89835V8.81889H283.672ZM308.537 8.81889H307.537V8.89868L307.55 8.97745L308.537 8.81889ZM308.584 9.10822L307.649 9.46367L309.571 8.94966L308.584 9.10822ZM296.105 1.302C292.494 1.302 289.269 2.86873 286.938 4.50865C285.765 5.3336 284.794 6.19349 284.085 6.92099C283.731 7.28447 283.435 7.62176 283.21 7.91193C283.005 8.17448 282.796 8.47616 282.691 8.75293L284.56 9.46351C284.551 9.48794 284.595 9.38766 284.788 9.13999C284.959 8.91995 285.204 8.63876 285.517 8.31684C286.144 7.67355 287.021 6.89497 288.088 6.14454C290.236 4.63369 293.06 3.302 296.105 3.302V1.302ZM284.613 9.26613L284.659 8.97681L282.684 8.66097L282.638 8.9503L284.613 9.26613ZM284.672 8.81889C284.672 8.9494 284.635 9.01155 284.654 8.9689C284.666 8.94079 284.697 8.88072 284.758 8.78711C284.882 8.60067 285.085 8.34723 285.373 8.04457C285.946 7.44242 286.799 6.70781 287.867 5.99673C290.013 4.56904 292.93 3.302 296.105 3.302V1.302C292.413 1.302 289.114 2.76509 286.759 4.33168C285.578 5.11774 284.609 5.94631 283.925 6.66515C283.584 7.02297 283.298 7.36947 283.09 7.68388C282.987 7.8407 282.891 8.00628 282.818 8.17425C282.752 8.32767 282.672 8.5563 282.672 8.81889H284.672ZM296.105 3.302C299.279 3.302 302.196 4.56904 304.342 5.99673C305.41 6.70781 306.263 7.44242 306.836 8.04457C307.124 8.34723 307.327 8.60067 307.45 8.78711C307.512 8.88072 307.543 8.94079 307.555 8.9689C307.574 9.01155 307.537 8.9494 307.537 8.81889H309.537C309.537 8.5563 309.457 8.32767 309.391 8.17425C309.318 8.00628 309.222 7.8407 309.119 7.68388C308.911 7.36947 308.625 7.02297 308.284 6.66515C307.6 5.94632 306.631 5.11775 305.45 4.33168C303.095 2.76509 299.796 1.302 296.105 1.302V3.302ZM307.55 8.97745L307.596 9.26678L309.571 8.94966L309.525 8.66033L307.55 8.97745ZM309.518 8.75277C309.413 8.47607 309.204 8.17445 308.999 7.9119C308.774 7.62174 308.478 7.28446 308.124 6.92098C307.415 6.19348 306.444 5.3336 305.271 4.50865C302.94 2.86873 299.715 1.302 296.105 1.302V3.302C299.149 3.302 301.973 4.63369 304.121 6.14454C305.188 6.89497 306.065 7.67356 306.692 8.31685C307.005 8.63877 307.25 8.91997 307.421 9.14003C307.614 9.38769 307.658 9.48802 307.649 9.46367L309.518 8.75277Z" fill="black" mask="url(#path-12-inside-2_58_68)"/>
<path d="M276.189 41.7826H277.403V41.3236H276.649C276.772 30.6328 285.508 21.9739 296.227 21.9739C306.947 21.9739 315.682 30.6328 315.805 41.3236H314.806V41.7826H316.265V41.553C316.265 38.8482 315.735 36.2239 314.69 33.7532C313.681 31.3671 312.236 29.2242 310.396 27.384C308.556 25.5438 306.413 24.0989 304.027 23.0897C301.556 22.0448 298.932 21.515 296.227 21.515C293.522 21.515 290.898 22.0448 288.427 23.0897C286.041 24.0989 283.898 25.5438 282.058 27.384C280.218 29.2242 278.773 31.3671 277.764 33.7532C276.719 36.2239 276.189 38.8482 276.189 41.553V41.7826Z" fill="#212121"/>
<path d="M289.93 21.8717C291.918 21.3299 293.991 21.0505 296.107 21.0505C298.211 21.0505 300.272 21.3268 302.25 21.8621C302.687 21.9807 302.942 22.4358 302.819 22.8721C302.695 23.3098 302.238 23.5624 301.802 23.4337C299.941 22.885 298.232 22.6888 296.107 22.6888C293.996 22.6888 292.239 22.8999 290.378 23.4454C289.927 23.5775 289.458 23.3048 289.351 22.8479L289.351 22.8457C289.251 22.4183 289.506 21.987 289.93 21.8717Z" fill="#2B2F2E"/>
</svg>
