<svg width="178" height="106" viewBox="0 0 178 106" fill="none" xmlns="http://www.w3.org/2000/svg">
<path d="M6.528 20.28H13.92C20.928 20.28 22.944 16.296 22.944 12.36C22.944 8.37599 20.88 4.43999 13.92 4.43999H6.528V20.28ZM16.32 20.568C23.424 21.336 26.976 25.512 26.976 29.736C26.976 34.392 22.656 39 13.92 39H3.072V38.52H4.032V4.43999H3.072V3.95999H13.92C22.608 3.95999 25.536 8.13599 25.536 12.36C25.536 16.152 23.184 19.896 16.32 20.568ZM13.92 38.52C20.928 38.52 24.384 34.056 24.384 29.64C24.384 25.176 20.88 20.76 13.92 20.76H6.528V38.52H13.92ZM51.5333 39.576V31.416C49.9493 36.552 45.6293 39.528 41.1653 39.528C36.8453 39.528 32.0933 36.696 32.0933 30.312V15.48H31.1333V15H35.4533V15.48H34.4933V30.312C34.4933 36.36 37.6613 39 41.3093 39C46.0613 39 51.5333 34.488 51.5333 27.048V15H54.8933V15.48H53.9333V38.52H54.8933V39L51.5333 39.576ZM72.3353 15C65.7113 15 62.3993 20.952 62.3993 26.952C62.3993 32.952 65.7113 39 72.3353 39C76.1753 39 78.9113 37.032 80.5433 34.2H82.7032C80.6873 37.272 77.2793 39.48 72.3353 39.48C64.0793 39.48 59.9513 33.192 59.9513 26.952C59.9513 20.712 64.0793 14.52 72.3353 14.52C76.9913 14.52 80.3033 16.728 82.2233 19.8H80.0153C78.4793 16.968 75.9353 15 72.3353 15ZM100.745 15.48V15H104.201V15.48H102.761L93.2573 25.128L104.825 38.52H106.217V39H102.041L90.3773 25.608V38.52H91.3372V39H87.0173V38.52H87.9773V3.95999H87.0173V3.47999L90.3773 2.90399V21.864L92.6813 24.504L101.801 15.48H100.745ZM121.177 26.04C126.553 26.04 129.193 23.88 129.193 21.144C129.193 18.408 126.553 15 121.225 15C114.937 15 111.721 20.376 111.385 26.04H121.177ZM108.889 26.952C108.889 20.76 112.969 14.52 121.225 14.52H121.273C128.185 14.568 131.641 18.168 131.641 21.144C131.641 24.12 128.185 26.52 121.177 26.52H111.337V26.952C111.337 32.952 114.649 39 121.273 39C125.113 39 127.849 37.032 129.481 34.2H131.641C129.625 37.272 126.217 39.48 121.273 39.48C113.017 39.48 108.889 33.192 108.889 26.952ZM137.9 30.264V15.48H136.076V15H137.9V6.26399H136.94V5.78399L140.3 5.30399V15H151.148V20.28H150.476C150.476 17.352 148.796 15.48 146.156 15.48H140.3V30.264C140.3 35.736 143.084 38.616 146.012 38.616C148.076 38.616 150.236 37.128 151.484 34.056H153.692C152.06 37.368 148.892 39 145.82 39C141.788 39 137.9 36.12 137.9 30.264ZM157.612 20.76C157.612 17.64 160.444 14.52 166.156 14.52C170.38 14.52 173.356 16.728 175.084 19.8H172.876C171.532 16.968 169.276 15 166.156 15C162.076 15 160.06 17.88 160.06 20.76C160.06 28.968 175.564 25.512 175.564 33.24C175.564 36.36 172.588 39.48 166.54 39.48C161.884 39.48 158.572 37.272 156.652 34.2H158.86C160.396 37.032 162.94 39 166.54 39C170.956 39 173.116 36.12 173.116 33.24C173.116 25.224 157.612 28.584 157.612 20.76Z" fill="black"/>
<path d="M13.096 79.952C13.096 85.952 16.408 92 23.08 92C29.704 92 33.016 86.048 33.016 80.048C33.016 74.048 29.704 68 23.032 68C16.408 68 13.096 73.952 13.096 79.952ZM23.368 67.52C31.336 67.52 35.464 73.808 35.464 80.048C35.464 86.288 31.336 92.48 23.416 92.48C18.328 92.48 14.872 89.888 13.096 86.384V92H9.736V91.52H10.696V56.96H9.736V56.48L13.096 55.904V73.568C14.872 70.112 18.28 67.52 23.368 67.52ZM46.1466 104H44.6106L50.2746 92H48.6906L39.9066 68.48H38.7546V68H43.1706V68.48H42.4026L50.7546 90.56L59.1066 68.528H58.3386V68.048H60.7386V68.528H59.6826C55.1706 80.384 50.7546 92.288 46.1466 104Z" fill="black"/>
<path d="M147.817 67.424V75.584C149.401 70.448 153.721 67.52 158.185 67.52C162.505 67.52 167.257 70.304 167.257 76.688V91.52H168.217V92H163.897V91.52H164.857V76.688C164.857 70.64 161.689 68 158.041 68C153.289 68 147.817 72.512 147.817 79.952V92H144.457V91.52H145.417V68.48H144.457V68L147.817 67.424Z" fill="black"/>
<path d="M135.592 83.552V77.792C131.032 80.624 121.624 80.144 121.624 86.24C121.624 89.12 123.784 92 127.432 92C131.032 92 135.112 89.216 135.592 83.552ZM135.592 87.776C133.768 90.992 130.36 92.48 127 92.48C122.152 92.48 119.176 89.36 119.176 86.24C119.176 78.512 135.64 81.968 135.64 73.76C135.64 70.88 133.144 68 129.304 68C126.136 68 123.592 69.968 122.344 72.8H120.136C121.768 69.728 125.08 67.52 129.496 67.52C134.728 67.52 137.992 70.64 137.992 73.76V91.424L138.952 91.52V92H135.592V87.776Z" fill="black"/>
<path d="M113.221 55.904V91.52H114.181V92H109.861V91.52H110.821V56.96H109.861V56.48L113.221 55.904Z" fill="black"/>
<path d="M99.6055 60.6622V60.7021L99.6119 60.7415L103.645 85.8661L104.293 89.9032H74.3136L78.9952 60.7415L79.0015 60.7021V60.6871C79.0039 60.68 79.0082 60.6687 79.0154 60.6525C79.0378 60.6028 79.0778 60.5314 79.1417 60.4382C79.2692 60.2524 79.4679 60.0147 79.7373 59.7411C80.2745 59.1954 81.0613 58.5389 82.0358 57.9063C83.9895 56.638 86.6449 55.5 89.5 55.5C91.5969 55.5 93.7171 56.2181 95.4666 57.1909C97.2279 58.1702 98.5412 59.3668 99.0704 60.2557L99.1637 60.4126L99.3361 60.4724C99.5034 60.5304 99.5765 60.5765 99.604 60.5973C99.6048 60.6107 99.6055 60.6315 99.6055 60.6622Z" stroke="black"/>
<path d="M73.5545 89.8506V88.2651C73.5728 88.2526 73.5963 88.2382 73.6256 88.222C73.7892 88.1321 74.0627 88.0296 74.46 87.9238C75.2468 87.7145 76.408 87.5207 77.8697 87.3563C80.7864 87.028 84.8291 86.8238 89.3036 86.8238C93.778 86.8238 97.8206 87.028 100.737 87.3563C102.199 87.5207 103.36 87.7145 104.147 87.9238C104.544 88.0296 104.818 88.1321 104.981 88.222C105.011 88.2382 105.034 88.2526 105.052 88.2651V89.8506H73.5545Z" stroke="black"/>
<path d="M89.3036 89.0219C93.778 89.0219 97.8206 89.2261 100.737 89.5544C102.199 89.7189 103.36 89.9127 104.147 90.122C104.445 90.2014 104.674 90.2789 104.838 90.3506C104.674 90.4224 104.445 90.4999 104.147 90.5793C103.36 90.7886 102.199 90.9824 100.737 91.1468C97.8206 91.4751 93.778 91.6793 89.3036 91.6793C84.8291 91.6793 80.7864 91.4751 77.8697 91.1468C76.408 90.9824 75.2468 90.7886 74.46 90.5793C74.1619 90.4999 73.9335 90.4224 73.7689 90.3506C73.9335 90.2789 74.1619 90.2014 74.46 90.122C75.2468 89.9127 76.408 89.7189 77.8697 89.5544C80.7864 89.2261 84.8292 89.0219 89.3036 89.0219Z" fill="#D9D9D9" stroke="black"/>
<path d="M89.3036 88.5219C80.3295 88.5219 73.0545 89.3407 73.0545 90.3506C73.0545 90.3594 73.0552 90.3682 73.0564 90.377C73.1817 89.3792 80.4078 88.5747 89.3036 88.5747C98.1992 88.5747 105.425 89.3792 105.551 90.377C105.552 90.3682 105.552 90.3594 105.552 90.3506C105.552 89.3407 98.2775 88.5219 89.3036 88.5219Z" fill="#EBF2B0"/>
<mask id="path-10-inside-1_5_78" fill="white">
<path d="M103.673 90.386C103.584 91.2043 97.1845 91.8648 89.3036 91.8648C81.4225 91.8648 75.0232 91.2043 74.9338 90.386C74.9333 90.3918 74.9328 90.3975 74.9328 90.4034C74.9328 91.2297 81.3668 91.8995 89.3036 91.8995C97.2402 91.8995 103.674 91.2297 103.674 90.4034C103.674 90.3975 103.674 90.3918 103.673 90.386Z"/>
</mask>
<path d="M103.673 90.386L104.669 90.2981L102.679 90.2774L103.673 90.386ZM74.9338 90.386L75.9279 90.2774L73.9377 90.2981L74.9338 90.386ZM102.679 90.2774C102.709 90.0005 102.86 89.8449 102.904 89.8041C102.951 89.7606 102.97 89.7589 102.917 89.7845C102.814 89.8345 102.607 89.9076 102.265 89.99C101.593 90.1516 100.59 90.3055 99.3078 90.4375C96.7551 90.7004 93.2208 90.8648 89.3036 90.8648V92.8648C93.2673 92.8648 96.8731 92.6989 99.5127 92.427C100.827 92.2916 101.933 92.1269 102.732 91.9345C103.126 91.8399 103.495 91.7272 103.789 91.5844C103.935 91.5137 104.109 91.4139 104.264 91.2708C104.415 91.1304 104.626 90.8737 104.667 90.4945L102.679 90.2774ZM89.3036 90.8648C85.3863 90.8648 81.852 90.7004 79.2993 90.4375C78.0172 90.3055 77.014 90.1516 76.3424 89.99C75.9999 89.9076 75.7929 89.8345 75.6897 89.7845C75.6367 89.7589 75.6563 89.7606 75.7032 89.8041C75.7472 89.8449 75.8976 90.0005 75.9279 90.2774L73.9397 90.4945C73.9811 90.8737 74.192 91.1304 74.3434 91.2708C74.4978 91.4139 74.6717 91.5137 74.8177 91.5844C75.1123 91.7272 75.4815 91.8399 75.8746 91.9345C76.6743 92.1269 77.7802 92.2916 79.0943 92.427C81.7339 92.6989 85.3398 92.8648 89.3036 92.8648V90.8648ZM73.9377 90.2981C73.9376 90.2984 73.9373 90.3026 73.9369 90.3068C73.9365 90.3115 73.9359 90.3188 73.9353 90.3275C73.9342 90.3447 73.9328 90.3713 73.9328 90.4034H75.9328C75.9328 90.4297 75.9316 90.4504 75.9308 90.4619C75.9302 90.4716 75.9294 90.4801 75.9299 90.4739L73.9377 90.2981ZM73.9328 90.4034C73.9328 90.8039 74.1323 91.0918 74.2911 91.2546C74.4469 91.4143 74.6264 91.5225 74.7713 91.5962C75.0647 91.7455 75.4343 91.8611 75.8231 91.9568C76.6167 92.1521 77.7222 92.3189 79.0383 92.4559C81.683 92.7312 85.3119 92.8995 89.3036 92.8995V90.8995C85.3585 90.8995 81.802 90.7328 79.2454 90.4667C77.9609 90.3329 76.9619 90.1774 76.3011 90.0147C75.9626 89.9314 75.7676 89.8591 75.6782 89.8136C75.6316 89.7899 75.6652 89.799 75.7228 89.8581C75.7835 89.9203 75.9328 90.1061 75.9328 90.4034H73.9328ZM89.3036 92.8995C93.2952 92.8995 96.9241 92.7312 99.5687 92.4559C100.885 92.3189 101.99 92.1521 102.784 91.9568C103.173 91.8611 103.542 91.7455 103.836 91.5962C103.981 91.5225 104.16 91.4143 104.316 91.2546C104.475 91.0918 104.674 90.8039 104.674 90.4034H102.674C102.674 90.1061 102.824 89.9203 102.884 89.8581C102.942 89.799 102.975 89.7899 102.929 89.8136C102.839 89.8591 102.644 89.9314 102.306 90.0147C101.645 90.1774 100.646 90.3329 99.3616 90.4667C96.8051 90.7328 93.2486 90.8995 89.3036 90.8995V92.8995ZM104.674 90.4034C104.674 90.3713 104.673 90.3447 104.672 90.3275C104.671 90.3188 104.671 90.3115 104.67 90.3068C104.67 90.3026 104.669 90.2984 104.669 90.2981L102.677 90.4739C102.678 90.4801 102.677 90.4716 102.676 90.4619C102.675 90.4504 102.674 90.4297 102.674 90.4034H104.674Z" fill="black" mask="url(#path-10-inside-1_5_78)"/>
<mask id="path-12-inside-2_5_78" fill="white">
<path d="M89.3036 55C83.5209 55 78.7944 60.0366 78.4611 60.9136L78.5013 60.6622C78.5013 59.7442 83.3377 55 89.3036 55C95.2694 55 100.106 59.7442 100.106 60.6622L100.146 60.9136C99.8126 60.0366 95.0861 55 89.3036 55Z"/>
</mask>
<path d="M78.4611 60.9136L77.4737 60.7557L79.3959 61.2689L78.4611 60.9136ZM78.5013 60.6622L79.4888 60.8201L79.5013 60.7417V60.6622H78.5013ZM100.106 60.6622H99.1057V60.742L99.1184 60.8208L100.106 60.6622ZM100.146 60.9136L99.2114 61.2691L101.133 60.755L100.146 60.9136ZM89.3036 54C86.1291 54 83.3014 55.3767 81.2635 56.81C80.2375 57.5316 79.3879 58.2841 78.7665 58.9217C78.4561 59.2402 78.1959 59.537 77.9962 59.7937C77.818 60.0228 77.6253 60.2981 77.5263 60.5583L79.3959 61.2689C79.3803 61.3099 79.4082 61.2359 79.5748 61.0217C79.72 60.8351 79.9289 60.5945 80.1989 60.3175C80.7381 59.7641 81.4941 59.093 82.4141 58.4459C84.2685 57.1416 86.6954 56 89.3036 56V54ZM79.4486 61.0715L79.4888 60.8201L77.5139 60.5043L77.4737 60.7557L79.4486 61.0715ZM79.5013 60.6622C79.5013 60.8014 79.4619 60.8745 79.4748 60.8447C79.4814 60.8294 79.5038 60.7841 79.5549 60.707C79.6565 60.5533 79.8272 60.3393 80.0743 60.0799C80.5653 59.5644 81.2981 58.9323 82.2192 58.3194C84.0697 57.088 86.579 56 89.3036 56V54C86.0622 54 83.1704 55.2841 81.1112 56.6543C80.0775 57.3422 79.2283 58.0683 78.6261 58.7005C78.3265 59.015 78.0729 59.3222 77.8867 59.6037C77.7938 59.7441 77.7066 59.8949 77.6394 60.05C77.5785 60.1906 77.5013 60.4083 77.5013 60.6622H79.5013ZM89.3036 56C92.0281 56 94.5374 57.088 96.3878 58.3194C97.3089 58.9323 98.0417 59.5644 98.5327 60.0799C98.7798 60.3393 98.9506 60.5533 99.0521 60.707C99.1032 60.7841 99.1257 60.8294 99.1323 60.8447C99.1452 60.8745 99.1057 60.8014 99.1057 60.6622H101.106C101.106 60.4083 101.028 60.1906 100.968 60.05C100.9 59.8949 100.813 59.7441 100.72 59.6037C100.534 59.3222 100.28 59.015 99.9809 58.7005C99.3787 58.0683 98.5295 57.3422 97.4958 56.6543C95.4366 55.2841 92.5449 54 89.3036 54V56ZM99.1184 60.8208L99.1587 61.0722L101.133 60.755L101.093 60.5037L99.1184 60.8208ZM101.081 60.5581C100.982 60.298 100.789 60.0227 100.611 59.7936C100.411 59.5369 100.151 59.2402 99.8406 58.9217C99.2192 58.2841 98.3696 57.5316 97.3435 56.81C95.3056 55.3767 92.478 54 89.3036 54V56C91.9117 56 94.3386 57.1416 96.1929 58.4459C97.113 59.093 97.8689 59.7641 98.4082 60.3176C98.6782 60.5945 98.8872 60.8352 99.0324 61.0218C99.199 61.236 99.2269 61.3099 99.2114 61.2691L101.081 60.5581Z" fill="black" mask="url(#path-12-inside-2_5_78)"/>
<path d="M72 89.3028H73.0549V88.9041H72.3999C72.5069 79.6153 80.0966 72.092 89.4102 72.092C98.7239 72.092 106.313 79.6153 106.42 88.9041H105.553V89.3028H106.82V89.1033C106.82 86.7532 106.36 84.4732 105.452 82.3265C104.575 80.2533 103.32 78.3915 101.721 76.7926C100.122 75.1937 98.2603 73.9383 96.1871 73.0615C94.0406 72.1536 91.7605 71.6933 89.4102 71.6933C87.06 71.6933 84.7799 72.1536 82.6334 73.0615C80.5602 73.9383 78.6982 75.1937 77.0993 76.7926C75.5004 78.3915 74.2452 80.2533 73.3682 82.3265C72.4603 84.4732 72 86.7532 72 89.1033V89.3028Z" fill="#212121"/>
<path d="M83.9384 72.0032C85.666 71.5325 87.4673 71.2897 89.3058 71.2897C91.1337 71.2897 92.9248 71.5297 94.6427 71.9949C95.0228 72.0979 95.2443 72.4933 95.1374 72.8724C95.0301 73.2527 94.6329 73.4721 94.2538 73.3603C92.6372 72.8836 91.1516 72.7131 89.3058 72.7131C87.4716 72.7131 85.945 72.8966 84.3277 73.3705C83.9362 73.4852 83.5287 73.2484 83.436 72.8513L83.4355 72.8495C83.3487 72.4782 83.5704 72.1034 83.9384 72.0032Z" fill="#2B2F2E"/>
</svg>
